<svg xmlns="http://www.w3.org/2000/svg" viewBox="0 0 96 96" role="img" aria-labelledby="title desc">
  <title id="title">TinyPyk logo mark</title>
  <desc id="desc">A friendly Python and block-coding mark for TinyPyk.</desc>
  <defs>
    <linearGradient id="tinypyk-blue" x1="17" x2="56" y1="18" y2="54" gradientUnits="userSpaceOnUse">
      <stop stop-color="#4aa3df"/>
      <stop offset="1" stop-color="#2450a6"/>
    </linearGradient>
    <linearGradient id="tinypyk-yellow" x1="39" x2="78" y1="43" y2="80" gradientUnits="userSpaceOnUse">
      <stop stop-color="#ffe66d"/>
      <stop offset="1" stop-color="#ffb703"/>
    </linearGradient>
  </defs>
  <rect width="96" height="96" rx="24" fill="#ffffff"/>
  <rect x="5" y="5" width="86" height="86" rx="21" fill="#fff8df" stroke="#14233a" stroke-width="3"/>
  <path fill="#ff7a1a" d="M72.7 23.6c8.4 2.7 14 10 13.6 18.4-.4 8.1-5.7 14.8-13.8 17.5l-3.9-7.7c4.3-1.4 7-4.7 7.2-8.8.2-4.8-3.2-8.8-8.8-10.1l5.7-9.3Z"/>
  <path fill="#ff7a1a" d="m67.5 24 11.2-11.6 1.4 17.2L67.5 24Z"/>
  <path fill="url(#tinypyk-blue)" d="M17 40.1C17 26 25.1 19 39.8 19H54c8.1 0 13 4.4 13 11.2 0 6.7-4.7 10.8-12.7 10.8H40.6c-3.4 0-5.6 1.9-5.6 5v4H17v-9.9Z"/>
  <path fill="url(#tinypyk-yellow)" d="M79 55.9C79 70 70.9 77 56.2 77H42c-8.1 0-13-4.4-13-11.2C29 59.1 33.7 55 41.7 55h13.7c3.4 0 5.6-1.9 5.6-5v-4h18v9.9Z"/>
  <path fill="#ff7a1a" d="M27.5 58.6C22.7 63.2 17.3 65.5 11 65.7c1.6-5.8 4.9-10.4 9.8-13.4l6.7 6.3Z"/>
  <circle cx="39" cy="30" r="4" fill="#ffffff"/>
  <circle cx="57" cy="66" r="4" fill="#ffffff"/>
  <rect x="33" y="40" width="30" height="18" rx="7" fill="#ffffff" stroke="#14233a" stroke-width="3"/>
  <path fill="#14233a" d="M39 47h18v5H39z"/>
  <path fill="#14233a" d="M45.5 40.5h5v18h-5z"/>
</svg>
